<?xml version="1.0" encoding="UTF-8"?>
<!DOCTYPE svg PUBLIC "-//W3C//DTD SVG 1.1//EN" "http://www.w3.org/Graphics/SVG/1.1/DTD/svg11.dtd">
<svg xmlns="http://www.w3.org/2000/svg" version="1.1" width="512px" height="512px" style="shape-rendering:geometricPrecision; text-rendering:geometricPrecision; image-rendering:optimizeQuality; fill-rule:evenodd; clip-rule:evenodd" xmlns:xlink="http://www.w3.org/1999/xlink">
<g><path style="opacity:0.907" fill="#5d6074" d="M 177.5,42.5 C 180.069,43.3956 182.069,45.0623 183.5,47.5C 176.527,55.733 174.694,65.0663 178,75.5C 182.609,83.1074 187.609,90.4408 193,97.5C 196.333,106.5 196.333,115.5 193,124.5C 189.724,130.108 186.057,135.442 182,140.5C 177.303,152.506 179.136,163.339 187.5,173C 186.392,175.112 184.892,176.946 183,178.5C 172.187,166.911 169.521,153.577 175,138.5C 178.276,132.892 181.943,127.558 186,122.5C 189.333,114.833 189.333,107.167 186,99.5C 182.715,94.5463 179.048,89.8797 175,85.5C 167.051,70.5765 167.884,56.2432 177.5,42.5 Z"/></g>
<g><path style="opacity:0.913" fill="#5d6074" d="M 356.5,98.5 C 370.484,97.3171 376.317,103.65 374,117.5C 369.395,125.214 362.895,127.381 354.5,124C 347.845,119.36 346.011,113.194 349,105.5C 350.742,102.254 353.242,99.921 356.5,98.5 Z M 358.5,105.5 C 367.244,105.413 369.577,109.246 365.5,117C 359.761,119.464 356.094,117.631 354.5,111.5C 354.866,108.744 356.2,106.744 358.5,105.5 Z"/></g>
<g><path style="opacity:0.909" fill="#5d6074" d="M 264.5,102.5 C 265.822,102.33 266.989,102.663 268,103.5C 276.258,118.584 275.925,133.584 267,148.5C 261.635,154.199 255.969,159.533 250,164.5C 241.607,177.426 241.44,190.426 249.5,203.5C 248.308,205.683 246.475,207.016 244,207.5C 237.121,198.306 234.787,187.973 237,176.5C 238.245,170.678 240.578,165.345 244,160.5C 249.143,155.268 254.476,150.268 260,145.5C 269.15,132.266 269.317,119.099 260.5,106C 262.093,105.051 263.426,103.885 264.5,102.5 Z"/></g>
<g><path style="opacity:0.903" fill="#5e6174" d="M 74.5,105.5 C 76.5914,105.318 78.5914,105.652 80.5,106.5C 80.6086,113.006 82.9419,118.506 87.5,123C 92.9826,125.718 98.6493,128.051 104.5,130C 109.031,133.571 112.198,138.071 114,143.5C 114.333,149.833 114.667,156.167 115,162.5C 117.222,168.779 121.556,172.779 128,174.5C 128.484,176.913 128.15,179.246 127,181.5C 117.084,179.25 110.751,173.25 108,163.5C 107.667,157.5 107.333,151.5 107,145.5C 105.193,139.693 101.36,135.859 95.5,134C 80.2475,130.581 73.2475,121.081 74.5,105.5 Z"/></g>
<g><path style="opacity:0.941" fill="#5d6174" d="M 314.5,128.5 C 324.645,129.478 328.145,134.811 325,144.5C 319.461,150.16 313.795,150.493 308,145.5C 304.363,137.341 306.53,131.674 314.5,128.5 Z M 315.5,135.5 C 320.609,137.335 320.775,139.668 316,142.5C 313.005,140.243 312.839,137.909 315.5,135.5 Z"/></g>
<g><path style="opacity:0.964" fill="#606377" d="M 396.5,138.5 C 435.604,136.801 462.104,154.134 476,190.5C 484.774,232.451 469.941,262.617 431.5,281C 418.848,284.921 406.014,286.421 393,285.5C 387.099,326.906 380.766,368.239 374,409.5C 369.618,419.939 362.118,427.106 351.5,431C 265.877,432.656 180.21,432.989 94.5,432C 83.7892,428.624 77.2892,421.457 75,410.5C 63.3835,355.584 52.2168,300.584 41.5,245.5C 42.5688,231.598 49.9021,223.098 63.5,220C 76.8292,219.5 90.1625,219.333 103.5,219.5C 104.412,203.469 112.746,194.302 128.5,192C 142.167,191.333 155.833,191.333 169.5,192C 178.747,192.703 185.914,196.87 191,204.5C 194.792,211.255 198.959,217.755 203.5,224C 246.499,224.5 289.499,224.667 332.5,224.5C 328.978,186.021 344.645,158.855 379.5,143C 385.211,141.166 390.878,139.666 396.5,138.5 Z"/></g>
<g><path style="opacity:1" fill="#f4f4f3" d="M 392.5,145.5 C 432.153,142.06 458.319,159.06 471,196.5C 476.302,236.484 460.135,263.318 422.5,277C 391.746,283.2 367.246,273.7 349,248.5C 331.722,216.766 335.556,187.933 360.5,162C 369.985,154.092 380.651,148.592 392.5,145.5 Z"/></g>
<g><path style="opacity:1" fill="#e18413" d="M 397.5,168.5 C 419.967,166.141 431.133,176.141 431,198.5C 429.607,202.286 427.941,205.952 426,209.5C 423.297,212.538 420.297,215.205 417,217.5C 414.668,220.822 413.502,224.489 413.5,228.5C 408.5,228.5 403.5,228.5 398.5,228.5C 398.406,216.022 403.572,206.355 414,199.5C 417.687,190.536 414.854,185.202 405.5,183.5C 399.158,183.842 395.825,187.175 395.5,193.5C 390.5,193.5 385.5,193.5 380.5,193.5C 380.031,187.101 381.864,181.435 386,176.5C 389.464,173.195 393.297,170.528 397.5,168.5 Z"/></g>
<g><path style="opacity:1" fill="#b1b6ca" d="M 321.5,230.5 C 321.5,230.833 321.5,231.167 321.5,231.5C 297.833,231.5 274.167,231.5 250.5,231.5C 233.167,231.5 215.833,231.5 198.5,231.5C 198.5,238.5 198.5,245.5 198.5,252.5C 182.163,252.667 165.83,252.5 149.5,252C 144.561,243.399 139.228,235.065 133.5,227C 126.885,221.297 119.218,219.131 110.5,220.5C 109.993,210.023 114.66,202.857 124.5,199C 140.833,198.333 157.167,198.333 173.5,199C 178.178,200.676 182.011,203.509 185,207.5C 189.698,214.701 194.198,222.035 198.5,229.5C 239.495,230.5 280.495,230.833 321.5,230.5 Z"/></g>
<g><path style="opacity:1" fill="#dde0eb" d="M 61.5,226.5 C 82.2205,226.047 102.887,226.547 123.5,228C 125.754,229.377 127.92,230.877 130,232.5C 135.5,241.333 141,250.167 146.5,259C 201.833,259.333 257.167,259.667 312.5,260C 318.841,261.675 323.341,265.508 326,271.5C 335.929,317.742 345.429,364.075 354.5,410.5C 353.753,419.747 348.753,424.914 339.5,426C 258.5,426.667 177.5,426.667 96.5,426C 87.4697,423.124 82.303,416.957 81,407.5C 70.7164,355.748 60.0497,304.082 49,252.5C 46.519,240.466 50.6856,231.799 61.5,226.5 Z"/></g>
<g><path style="opacity:1" fill="#bbc0d2" d="M 250.5,231.5 C 250.5,238.5 250.5,245.5 250.5,252.5C 233.167,252.5 215.833,252.5 198.5,252.5C 198.5,245.5 198.5,238.5 198.5,231.5C 215.833,231.5 233.167,231.5 250.5,231.5 Z"/></g>
<g><path style="opacity:1" fill="#c4c8d8" d="M 250.5,231.5 C 274.167,231.5 297.833,231.5 321.5,231.5C 323.269,238.37 325.602,245.036 328.5,251.5C 327.521,254.625 327.187,257.958 327.5,261.5C 323.2,256.848 317.866,254.015 311.5,253C 291.169,252.5 270.836,252.333 250.5,252.5C 250.5,245.5 250.5,238.5 250.5,231.5 Z"/></g>
<g><path style="opacity:1" fill="#a9b0c5" d="M 321.5,230.5 C 326.167,230.5 330.833,230.5 335.5,230.5C 339.742,248.339 349.408,262.339 364.5,272.5C 362.865,276.573 361.865,280.906 361.5,285.5C 347.136,277.469 336.136,266.136 328.5,251.5C 325.602,245.036 323.269,238.37 321.5,231.5C 321.5,231.167 321.5,230.833 321.5,230.5 Z"/></g>
<g><path style="opacity:1" fill="#e18412" d="M 412.5,240.5 C 412.5,245.5 412.5,250.5 412.5,255.5C 407.5,255.5 402.5,255.5 397.5,255.5C 397.5,250.5 397.5,245.5 397.5,240.5C 402.5,240.5 407.5,240.5 412.5,240.5 Z"/></g>
<g><path style="opacity:1" fill="#e9af67" d="M 412.5,240.5 C 413.488,245.64 413.821,250.974 413.5,256.5C 407.974,256.821 402.64,256.488 397.5,255.5C 402.5,255.5 407.5,255.5 412.5,255.5C 412.5,250.5 412.5,245.5 412.5,240.5 Z"/></g>
<g><path style="opacity:1" fill="#bbc1d1" d="M 364.5,272.5 C 371.079,276.622 378.079,279.955 385.5,282.5C 386.085,286.846 385.751,291.179 384.5,295.5C 375.927,294.042 368.26,290.709 361.5,285.5C 361.865,280.906 362.865,276.573 364.5,272.5 Z"/></g>
<g><path style="opacity:1" fill="#ced2e0" d="M 328.5,251.5 C 336.136,266.136 347.136,277.469 361.5,285.5C 368.26,290.709 375.927,294.042 384.5,295.5C 379.288,330.814 374.122,366.148 369,401.5C 367.832,408.17 364.832,413.837 360,418.5C 360.56,413.244 360.56,407.91 360,402.5C 351.333,360.5 342.667,318.5 334,276.5C 332.908,270.987 330.741,265.987 327.5,261.5C 327.187,257.958 327.521,254.625 328.5,251.5 Z"/></g>
<g><path style="opacity:1" fill="#5f6276" d="M 147.5,294.5 C 151.177,298.011 155.011,301.344 159,304.5C 162.954,301.549 166.621,298.216 170,294.5C 173.333,297.833 176.667,301.167 180,304.5C 180.667,305.167 180.667,305.833 180,306.5C 176.651,309.682 173.484,313.015 170.5,316.5C 173.833,320.167 177.167,323.833 180.5,327.5C 177.683,330.818 174.683,333.985 171.5,337C 170.5,337.667 169.5,337.667 168.5,337C 165.333,333.833 162.167,330.667 159,327.5C 155.621,331.216 151.954,334.549 148,337.5C 143.479,334.659 140.146,330.992 138,326.5C 141.349,323.318 144.516,319.985 147.5,316.5C 144.167,312.833 140.833,309.167 137.5,305.5C 140.855,301.813 144.189,298.147 147.5,294.5 Z"/></g>
<g><path style="opacity:1" fill="#606377" d="M 223.5,294.5 C 227.753,297.41 231.753,300.744 235.5,304.5C 239.167,301.167 242.833,297.833 246.5,294.5C 250.5,297.833 254.167,301.5 257.5,305.5C 253.634,308.532 250.301,312.032 247.5,316C 250.451,319.954 253.784,323.621 257.5,327C 254.167,330.333 250.833,333.667 247.5,337C 246.833,337.667 246.167,337.667 245.5,337C 242.318,333.651 238.985,330.484 235.5,327.5C 231.833,330.833 228.167,334.167 224.5,337.5C 220.682,334.182 217.015,330.682 213.5,327C 217.167,323.333 220.833,319.667 224.5,316C 220.784,312.621 217.451,308.954 214.5,305C 217.322,301.345 220.322,297.845 223.5,294.5 Z"/></g>
<g><path style="opacity:0.753" fill="#a9afc4" d="M 415.5,299.5 C 417.833,299.5 420.167,299.5 422.5,299.5C 422.5,301.833 422.5,304.167 422.5,306.5C 420.167,306.5 417.833,306.5 415.5,306.5C 415.5,304.167 415.5,301.833 415.5,299.5 Z"/></g>
<g><path style="opacity:0.753" fill="#a9afc4" d="M 415.5,315.5 C 417.833,315.5 420.167,315.5 422.5,315.5C 422.5,317.833 422.5,320.167 422.5,322.5C 420.167,322.5 417.833,322.5 415.5,322.5C 415.5,320.167 415.5,317.833 415.5,315.5 Z"/></g>
<g><path style="opacity:0.753" fill="#a9afc4" d="M 415.5,331.5 C 417.833,331.5 420.167,331.5 422.5,331.5C 422.5,333.833 422.5,336.167 422.5,338.5C 420.167,338.5 417.833,338.5 415.5,338.5C 415.5,336.167 415.5,333.833 415.5,331.5 Z"/></g>
<g><path style="opacity:0.753" fill="#a9afc4" d="M 415.5,347.5 C 417.833,347.5 420.167,347.5 422.5,347.5C 422.5,349.833 422.5,352.167 422.5,354.5C 420.167,354.5 417.833,354.5 415.5,354.5C 415.5,352.167 415.5,349.833 415.5,347.5 Z"/></g>
<g><path style="opacity:1" fill="#606276" d="M 186.5,357.5 C 208.05,356.054 228.05,360.888 246.5,372C 249.645,373.978 252.312,376.478 254.5,379.5C 250.814,383.352 247.314,387.352 244,391.5C 221.694,373.898 197.194,370.065 170.5,380C 163.991,383.085 157.991,386.918 152.5,391.5C 148.647,387.482 144.981,383.315 141.5,379C 154.724,368.054 169.724,360.887 186.5,357.5 Z"/></g>
<g><path style="opacity:0.753" fill="#a9afc4" d="M 415.5,363.5 C 417.833,363.5 420.167,363.5 422.5,363.5C 422.5,365.833 422.5,368.167 422.5,370.5C 420.167,370.5 417.833,370.5 415.5,370.5C 415.5,368.167 415.5,365.833 415.5,363.5 Z"/></g>
<g><path style="opacity:0.82" fill="#a9aec4" d="M 383.5,379.5 C 385.833,379.5 388.167,379.5 390.5,379.5C 390.5,381.833 390.5,384.167 390.5,386.5C 388.167,386.5 385.833,386.5 383.5,386.5C 383.5,384.167 383.5,381.833 383.5,379.5 Z"/></g>
<g><path style="opacity:0.82" fill="#a9aec4" d="M 399.5,379.5 C 401.833,379.5 404.167,379.5 406.5,379.5C 406.5,381.833 406.5,384.167 406.5,386.5C 404.167,386.5 401.833,386.5 399.5,386.5C 399.5,384.167 399.5,381.833 399.5,379.5 Z"/></g>
<g><path style="opacity:0.753" fill="#a9afc4" d="M 415.5,379.5 C 417.833,379.5 420.167,379.5 422.5,379.5C 422.5,381.833 422.5,384.167 422.5,386.5C 420.167,386.5 417.833,386.5 415.5,386.5C 415.5,384.167 415.5,381.833 415.5,379.5 Z"/></g>
<g><path style="opacity:1" fill="#abb1c5" d="M 285.5,379.5 C 287.5,379.5 289.5,379.5 291.5,379.5C 291.5,381.5 291.5,383.5 291.5,385.5C 289.5,385.5 287.5,385.5 285.5,385.5C 285.5,383.5 285.5,381.5 285.5,379.5 Z"/></g>
<g><path style="opacity:1" fill="#abb1c5" d="M 301.5,379.5 C 303.5,379.5 305.5,379.5 307.5,379.5C 307.5,381.5 307.5,383.5 307.5,385.5C 305.5,385.5 303.5,385.5 301.5,385.5C 301.5,383.5 301.5,381.5 301.5,379.5 Z"/></g>
<g><path style="opacity:1" fill="#abb1c5" d="M 317.5,379.5 C 319.5,379.5 321.5,379.5 323.5,379.5C 323.5,381.5 323.5,383.5 323.5,385.5C 321.5,385.5 319.5,385.5 317.5,385.5C 317.5,383.5 317.5,381.5 317.5,379.5 Z"/></g>
<g><path style="opacity:1" fill="#abb1c5" d="M 333.5,379.5 C 335.5,379.5 337.5,379.5 339.5,379.5C 339.5,381.5 339.5,383.5 339.5,385.5C 337.5,385.5 335.5,385.5 333.5,385.5C 333.5,383.5 333.5,381.5 333.5,379.5 Z"/></g>
<g><path style="opacity:1" fill="#aab0c5" d="M 360.5,379.5 C 362.5,379.5 364.5,379.5 366.5,379.5C 366.5,381.5 366.5,383.5 366.5,385.5C 364.5,385.5 362.5,385.5 360.5,385.5C 360.5,383.5 360.5,381.5 360.5,379.5 Z"/></g>
<g><path style="opacity:0.968" fill="#5e6076" d="M 35.5,418.5 C 42.1667,418.5 48.8333,418.5 55.5,418.5C 55.5,420.833 55.5,423.167 55.5,425.5C 48.8333,425.5 42.1667,425.5 35.5,425.5C 35.5,423.167 35.5,420.833 35.5,418.5 Z"/></g>
<g><path style="opacity:0.938" fill="#5b6376" d="M 62.5,433.5 C 65.648,434.474 67.4813,436.474 68,439.5C 63.8333,443.667 59.6667,447.833 55.5,452C 51.6667,452.167 49.8333,450.333 50,446.5C 54.3702,442.298 58.5368,437.964 62.5,433.5 Z"/></g>
<g><path style="opacity:0.86" fill="#5d6074" d="M 78.5,446.5 C 80.8333,446.5 83.1667,446.5 85.5,446.5C 85.5,453.167 85.5,459.833 85.5,466.5C 83.1667,466.5 80.8333,466.5 78.5,466.5C 78.5,459.833 78.5,453.167 78.5,446.5 Z"/></g>
</svg>
